<mxfile host="app.diagrams.net" agent="Mozilla/5.0 (Windows NT 10.0; Win64; x64) AppleWebKit/537.36 (KHTML, like Gecko) Chrome/137.0.0.0 Safari/537.36" version="27.1.4">
  <diagram name="Page-1" id="A_d-Qr13XHkfKN404QjA">
    <mxGraphModel dx="1426" dy="823" grid="1" gridSize="10" guides="1" tooltips="1" connect="1" arrows="1" fold="1" page="1" pageScale="1" pageWidth="1169" pageHeight="827" math="0" shadow="0">
      <root>
        <mxCell id="0" />
        <mxCell id="1" parent="0" />
        <mxCell id="2USoUXH-JXkQr2h2Ghpu-1" value="Usuario" style="shape=umlActor;verticalLabelPosition=top;verticalAlign=bottom;html=1;align=center;labelPosition=center;" parent="1" vertex="1">
          <mxGeometry x="229.5" y="32" width="30" height="60" as="geometry" />
        </mxCell>
        <mxCell id="2USoUXH-JXkQr2h2Ghpu-6" value="Administrativo del edificio" style="shape=umlActor;verticalLabelPosition=top;verticalAlign=bottom;html=1;labelPosition=center;align=center;" parent="1" vertex="1">
          <mxGeometry x="352" y="32" width="30" height="60" as="geometry" />
        </mxCell>
        <mxCell id="2USoUXH-JXkQr2h2Ghpu-23" style="edgeStyle=orthogonalEdgeStyle;rounded=0;orthogonalLoop=1;jettySize=auto;html=1;" parent="1" source="2USoUXH-JXkQr2h2Ghpu-7" target="2USoUXH-JXkQr2h2Ghpu-17" edge="1">
          <mxGeometry relative="1" as="geometry" />
        </mxCell>
        <mxCell id="2USoUXH-JXkQr2h2Ghpu-7" value="Agente de vigilancia" style="shape=umlActor;verticalLabelPosition=top;verticalAlign=bottom;html=1;labelPosition=center;align=center;" parent="1" vertex="1">
          <mxGeometry x="812" y="32" width="30" height="60" as="geometry" />
        </mxCell>
        <mxCell id="2USoUXH-JXkQr2h2Ghpu-8" value="Personal técnico" style="shape=umlActor;verticalLabelPosition=top;verticalAlign=bottom;html=1;labelPosition=center;align=center;" parent="1" vertex="1">
          <mxGeometry x="672" y="32" width="30" height="60" as="geometry" />
        </mxCell>
        <mxCell id="2USoUXH-JXkQr2h2Ghpu-12" value="Administrativo de Wolfsys" style="shape=umlActor;verticalLabelPosition=top;verticalAlign=bottom;html=1;labelPosition=center;align=center;" parent="1" vertex="1">
          <mxGeometry x="512" y="32" width="30" height="60" as="geometry" />
        </mxCell>
        <mxCell id="2USoUXH-JXkQr2h2Ghpu-37" style="edgeStyle=orthogonalEdgeStyle;rounded=0;orthogonalLoop=1;jettySize=auto;html=1;entryX=0.397;entryY=0.553;entryDx=0;entryDy=0;entryPerimeter=0;endArrow=none;startFill=0;" parent="1" source="2USoUXH-JXkQr2h2Ghpu-14" target="_ZhD5MY3oaE8I9x_8OGQ-15" edge="1">
          <mxGeometry relative="1" as="geometry">
            <Array as="points">
              <mxPoint x="245" y="252" />
            </Array>
          </mxGeometry>
        </mxCell>
        <mxCell id="2USoUXH-JXkQr2h2Ghpu-14" value="App móvil" style="verticalLabelPosition=bottom;html=1;verticalAlign=top;align=center;strokeColor=none;fillColor=#00BEF2;shape=mxgraph.azure.mobile;pointerEvents=1;labelBackgroundColor=default;" parent="1" vertex="1">
          <mxGeometry x="227" y="152" width="35" height="50" as="geometry" />
        </mxCell>
        <mxCell id="2USoUXH-JXkQr2h2Ghpu-26" style="edgeStyle=orthogonalEdgeStyle;rounded=0;orthogonalLoop=1;jettySize=auto;html=1;entryX=0.497;entryY=0.36;entryDx=0;entryDy=0;entryPerimeter=0;endArrow=none;startFill=0;" parent="1" source="2USoUXH-JXkQr2h2Ghpu-15" target="_ZhD5MY3oaE8I9x_8OGQ-15" edge="1">
          <mxGeometry relative="1" as="geometry">
            <mxPoint x="527" y="342" as="targetPoint" />
          </mxGeometry>
        </mxCell>
        <mxCell id="2USoUXH-JXkQr2h2Ghpu-15" value="Interfaz administrativa" style="verticalLabelPosition=bottom;html=1;verticalAlign=top;align=center;strokeColor=none;fillColor=#00BEF2;shape=mxgraph.azure.laptop;pointerEvents=1;labelBackgroundColor=default;" parent="1" vertex="1">
          <mxGeometry x="492" y="162" width="70" height="40" as="geometry" />
        </mxCell>
        <mxCell id="2USoUXH-JXkQr2h2Ghpu-36" style="edgeStyle=orthogonalEdgeStyle;rounded=0;orthogonalLoop=1;jettySize=auto;html=1;entryX=0.61;entryY=0.567;entryDx=0;entryDy=0;entryPerimeter=0;endArrow=none;startFill=0;" parent="1" source="2USoUXH-JXkQr2h2Ghpu-17" target="_ZhD5MY3oaE8I9x_8OGQ-15" edge="1">
          <mxGeometry relative="1" as="geometry">
            <Array as="points">
              <mxPoint x="827" y="252" />
            </Array>
          </mxGeometry>
        </mxCell>
        <mxCell id="2USoUXH-JXkQr2h2Ghpu-17" value="App web" style="verticalLabelPosition=bottom;html=1;verticalAlign=top;align=center;strokeColor=none;fillColor=#00BEF2;shape=mxgraph.azure.laptop;pointerEvents=1;labelBackgroundColor=default;" parent="1" vertex="1">
          <mxGeometry x="792" y="162" width="70" height="40" as="geometry" />
        </mxCell>
        <mxCell id="2USoUXH-JXkQr2h2Ghpu-19" style="rounded=0;orthogonalLoop=1;jettySize=auto;html=1;entryX=0.5;entryY=0;entryDx=0;entryDy=0;entryPerimeter=0;" parent="1" source="2USoUXH-JXkQr2h2Ghpu-1" target="2USoUXH-JXkQr2h2Ghpu-14" edge="1">
          <mxGeometry relative="1" as="geometry" />
        </mxCell>
        <mxCell id="2USoUXH-JXkQr2h2Ghpu-21" style="rounded=0;orthogonalLoop=1;jettySize=auto;html=1;entryX=0.5;entryY=0;entryDx=0;entryDy=0;entryPerimeter=0;" parent="1" source="2USoUXH-JXkQr2h2Ghpu-12" target="2USoUXH-JXkQr2h2Ghpu-15" edge="1">
          <mxGeometry relative="1" as="geometry" />
        </mxCell>
        <mxCell id="2USoUXH-JXkQr2h2Ghpu-22" style="rounded=0;orthogonalLoop=1;jettySize=auto;html=1;entryX=0.92;entryY=0.5;entryDx=0;entryDy=0;entryPerimeter=0;" parent="1" source="2USoUXH-JXkQr2h2Ghpu-8" target="2USoUXH-JXkQr2h2Ghpu-15" edge="1">
          <mxGeometry relative="1" as="geometry">
            <Array as="points">
              <mxPoint x="687" y="182" />
            </Array>
          </mxGeometry>
        </mxCell>
        <mxCell id="2USoUXH-JXkQr2h2Ghpu-24" style="rounded=0;orthogonalLoop=1;jettySize=auto;html=1;entryX=0.08;entryY=0.5;entryDx=0;entryDy=0;entryPerimeter=0;" parent="1" source="2USoUXH-JXkQr2h2Ghpu-6" target="2USoUXH-JXkQr2h2Ghpu-15" edge="1">
          <mxGeometry relative="1" as="geometry">
            <Array as="points">
              <mxPoint x="367" y="182" />
            </Array>
          </mxGeometry>
        </mxCell>
        <mxCell id="2USoUXH-JXkQr2h2Ghpu-66" style="rounded=0;orthogonalLoop=1;jettySize=auto;html=1;exitX=0.5;exitY=1;exitDx=0;exitDy=0;entryX=0.5;entryY=0;entryDx=0;entryDy=0;startArrow=classic;startFill=1;" parent="1" source="2USoUXH-JXkQr2h2Ghpu-35" target="2USoUXH-JXkQr2h2Ghpu-60" edge="1">
          <mxGeometry relative="1" as="geometry" />
        </mxCell>
        <mxCell id="2USoUXH-JXkQr2h2Ghpu-35" value="&lt;b&gt;Servicios backend&lt;/b&gt;&lt;div&gt;&lt;b&gt;&lt;br&gt;&lt;/b&gt;&lt;div style=&quot;text-align: left;&quot;&gt;-Autenticación y autorización&lt;/div&gt;&lt;div style=&quot;text-align: left;&quot;&gt;-&lt;span style=&quot;background-color: transparent; color: light-dark(rgb(0, 0, 0), rgb(255, 255, 255));&quot;&gt;Video Live y On Demand&lt;/span&gt;&lt;span style=&quot;background-color: transparent; color: light-dark(rgb(0, 0, 0), rgb(255, 255, 255));&quot;&gt;&amp;nbsp;&lt;/span&gt;&lt;/div&gt;&lt;div style=&quot;text-align: left;&quot;&gt;&lt;span style=&quot;background-color: transparent; color: light-dark(rgb(0, 0, 0), rgb(255, 255, 255));&quot;&gt;-Scoring&lt;/span&gt;&lt;/div&gt;&lt;div style=&quot;text-align: left;&quot;&gt;&lt;span style=&quot;background-color: transparent; color: light-dark(rgb(0, 0, 0), rgb(255, 255, 255));&quot;&gt;-Control de Accesos (menos tag)&lt;/span&gt;&lt;/div&gt;&lt;div style=&quot;text-align: left;&quot;&gt;&lt;span style=&quot;background-color: transparent; color: light-dark(rgb(0, 0, 0), rgb(255, 255, 255));&quot;&gt;-Notificaciones&lt;/span&gt;&lt;span style=&quot;background-color: transparent; color: light-dark(rgb(0, 0, 0), rgb(255, 255, 255));&quot;&gt;&amp;nbsp;push&lt;/span&gt;&lt;/div&gt;&lt;div style=&quot;text-align: left;&quot;&gt;&lt;span style=&quot;background-color: transparent; color: light-dark(rgb(0, 0, 0), rgb(255, 255, 255));&quot;&gt;-Configuración&lt;/span&gt;&lt;span style=&quot;background-color: transparent; color: light-dark(rgb(0, 0, 0), rgb(255, 255, 255));&quot; class=&quot;Apple-converted-space&quot;&gt;&amp;nbsp;de edificios&lt;/span&gt;&lt;/div&gt;&lt;/div&gt;" style="html=1;whiteSpace=wrap;" parent="1" vertex="1">
          <mxGeometry x="435" y="379" width="184.5" height="116" as="geometry" />
        </mxCell>
        <mxCell id="2USoUXH-JXkQr2h2Ghpu-49" style="rounded=0;orthogonalLoop=1;jettySize=auto;html=1;entryX=0.5;entryY=1;entryDx=0;entryDy=0;" parent="1" source="2USoUXH-JXkQr2h2Ghpu-39" target="2USoUXH-JXkQr2h2Ghpu-42" edge="1">
          <mxGeometry relative="1" as="geometry" />
        </mxCell>
        <mxCell id="2USoUXH-JXkQr2h2Ghpu-39" value="Edge Controller" style="html=1;whiteSpace=wrap;" parent="1" vertex="1">
          <mxGeometry x="697" y="603" width="110" height="50" as="geometry" />
        </mxCell>
        <mxCell id="2USoUXH-JXkQr2h2Ghpu-64" style="rounded=0;orthogonalLoop=1;jettySize=auto;html=1;exitX=1;exitY=0.5;exitDx=0;exitDy=0;entryX=0.003;entryY=0.347;entryDx=0;entryDy=0;entryPerimeter=0;" parent="1" source="2USoUXH-JXkQr2h2Ghpu-40" target="2USoUXH-JXkQr2h2Ghpu-35" edge="1">
          <mxGeometry relative="1" as="geometry" />
        </mxCell>
        <mxCell id="2USoUXH-JXkQr2h2Ghpu-40" value="Tumimeras" style="html=1;whiteSpace=wrap;labelBackgroundColor=none;fontColor=light-dark(#ffffff, #ededed);fillColor=#007FFF;" parent="1" vertex="1">
          <mxGeometry x="202" y="395" width="110" height="50" as="geometry" />
        </mxCell>
        <mxCell id="2USoUXH-JXkQr2h2Ghpu-58" style="rounded=0;orthogonalLoop=1;jettySize=auto;html=1;exitX=1;exitY=0.5;exitDx=0;exitDy=0;entryX=0;entryY=0.5;entryDx=0;entryDy=0;" parent="1" source="2USoUXH-JXkQr2h2Ghpu-41" target="2USoUXH-JXkQr2h2Ghpu-40" edge="1">
          <mxGeometry relative="1" as="geometry" />
        </mxCell>
        <mxCell id="2USoUXH-JXkQr2h2Ghpu-41" value="Cámaras" style="html=1;whiteSpace=wrap;" parent="1" vertex="1">
          <mxGeometry y="395" width="110" height="50" as="geometry" />
        </mxCell>
        <mxCell id="2USoUXH-JXkQr2h2Ghpu-42" value="Dispositivos de acceso físico" style="html=1;whiteSpace=wrap;" parent="1" vertex="1">
          <mxGeometry x="697" y="443" width="110" height="50" as="geometry" />
        </mxCell>
        <mxCell id="2USoUXH-JXkQr2h2Ghpu-45" value="DB" style="shape=cylinder3;whiteSpace=wrap;html=1;boundedLbl=1;backgroundOutline=1;size=15;" parent="1" vertex="1">
          <mxGeometry x="372" y="595.5" width="48" height="65" as="geometry" />
        </mxCell>
        <mxCell id="2USoUXH-JXkQr2h2Ghpu-55" style="rounded=0;orthogonalLoop=1;jettySize=auto;html=1;exitX=0.25;exitY=1;exitDx=0;exitDy=0;entryX=1;entryY=0.5;entryDx=0;entryDy=0;" parent="1" source="2USoUXH-JXkQr2h2Ghpu-54" target="2USoUXH-JXkQr2h2Ghpu-39" edge="1">
          <mxGeometry relative="1" as="geometry">
            <mxPoint x="929.5" y="597" as="sourcePoint" />
            <Array as="points">
              <mxPoint x="930" y="629" />
            </Array>
          </mxGeometry>
        </mxCell>
        <mxCell id="2USoUXH-JXkQr2h2Ghpu-56" style="rounded=0;orthogonalLoop=1;jettySize=auto;html=1;entryX=1;entryY=0.5;entryDx=0;entryDy=0;exitX=0.25;exitY=0;exitDx=0;exitDy=0;" parent="1" source="2USoUXH-JXkQr2h2Ghpu-54" target="2USoUXH-JXkQr2h2Ghpu-42" edge="1">
          <mxGeometry relative="1" as="geometry">
            <Array as="points">
              <mxPoint x="930" y="468" />
            </Array>
          </mxGeometry>
        </mxCell>
        <mxCell id="2USoUXH-JXkQr2h2Ghpu-54" value="UPS" style="html=1;whiteSpace=wrap;" parent="1" vertex="1">
          <mxGeometry x="902" y="525" width="110" height="50" as="geometry" />
        </mxCell>
        <mxCell id="2USoUXH-JXkQr2h2Ghpu-67" style="rounded=0;orthogonalLoop=1;jettySize=auto;html=1;exitX=1;exitY=0.5;exitDx=0;exitDy=0;entryX=0;entryY=0.5;entryDx=0;entryDy=0;startArrow=classic;startFill=1;" parent="1" source="2USoUXH-JXkQr2h2Ghpu-60" target="2USoUXH-JXkQr2h2Ghpu-39" edge="1">
          <mxGeometry relative="1" as="geometry" />
        </mxCell>
        <mxCell id="2USoUXH-JXkQr2h2Ghpu-60" value="CRM" style="html=1;whiteSpace=wrap;" parent="1" vertex="1">
          <mxGeometry x="472" y="603" width="110" height="50" as="geometry" />
        </mxCell>
        <mxCell id="2USoUXH-JXkQr2h2Ghpu-61" style="rounded=0;orthogonalLoop=1;jettySize=auto;html=1;exitX=0;exitY=0.5;exitDx=0;exitDy=0;entryX=1;entryY=0.5;entryDx=0;entryDy=0;entryPerimeter=0;startArrow=classic;startFill=1;" parent="1" source="2USoUXH-JXkQr2h2Ghpu-60" target="2USoUXH-JXkQr2h2Ghpu-45" edge="1">
          <mxGeometry relative="1" as="geometry" />
        </mxCell>
        <mxCell id="_ZhD5MY3oaE8I9x_8OGQ-1" value="AOD" style="rounded=0;whiteSpace=wrap;html=1;fillColor=#fad9d5;strokeColor=#ae4132;" parent="1" vertex="1">
          <mxGeometry x="7.5" y="10" width="55" height="30" as="geometry" />
        </mxCell>
        <mxCell id="_ZhD5MY3oaE8I9x_8OGQ-5" value="" style="endArrow=classic;html=1;rounded=0;exitX=1.005;exitY=0.781;exitDx=0;exitDy=0;exitPerimeter=0;entryX=0;entryY=0.5;entryDx=0;entryDy=0;" parent="1" source="2USoUXH-JXkQr2h2Ghpu-35" target="2USoUXH-JXkQr2h2Ghpu-42" edge="1">
          <mxGeometry width="50" height="50" relative="1" as="geometry">
            <mxPoint x="737" y="415" as="sourcePoint" />
            <mxPoint x="787" y="365" as="targetPoint" />
          </mxGeometry>
        </mxCell>
        <mxCell id="_ZhD5MY3oaE8I9x_8OGQ-6" value="Endpoints HTTP" style="text;html=1;align=center;verticalAlign=middle;whiteSpace=wrap;rounded=0;fontSize=11;" parent="1" vertex="1">
          <mxGeometry x="327" y="398" width="100" height="21" as="geometry" />
        </mxCell>
        <mxCell id="_ZhD5MY3oaE8I9x_8OGQ-7" value="" style="endArrow=classic;html=1;rounded=0;entryX=-0.001;entryY=0.762;entryDx=0;entryDy=0;exitX=0.5;exitY=0;exitDx=0;exitDy=0;startArrow=classic;startFill=1;entryPerimeter=0;" parent="1" source="_ZhD5MY3oaE8I9x_8OGQ-8" target="2USoUXH-JXkQr2h2Ghpu-35" edge="1">
          <mxGeometry width="50" height="50" relative="1" as="geometry">
            <mxPoint x="359.5" y="485" as="sourcePoint" />
            <mxPoint x="417" y="475.80000000000007" as="targetPoint" />
            <Array as="points">
              <mxPoint x="360" y="468" />
            </Array>
          </mxGeometry>
        </mxCell>
        <mxCell id="_ZhD5MY3oaE8I9x_8OGQ-8" value="Consulta de videos" style="html=1;whiteSpace=wrap;" parent="1" vertex="1">
          <mxGeometry x="279.5" y="515" width="160" height="37" as="geometry" />
        </mxCell>
        <mxCell id="_ZhD5MY3oaE8I9x_8OGQ-9" value="" style="endArrow=classic;html=1;rounded=0;exitX=0.728;exitY=1.02;exitDx=0;exitDy=0;entryX=0.5;entryY=0;entryDx=0;entryDy=0;entryPerimeter=0;startArrow=classic;startFill=1;exitPerimeter=0;endFill=1;" parent="1" source="_ZhD5MY3oaE8I9x_8OGQ-8" target="2USoUXH-JXkQr2h2Ghpu-45" edge="1">
          <mxGeometry width="50" height="50" relative="1" as="geometry">
            <mxPoint x="270" y="605" as="sourcePoint" />
            <mxPoint x="320" y="555" as="targetPoint" />
          </mxGeometry>
        </mxCell>
        <mxCell id="_ZhD5MY3oaE8I9x_8OGQ-10" value="DB historial de videos" style="shape=cylinder3;whiteSpace=wrap;html=1;boundedLbl=1;backgroundOutline=1;size=15;" parent="1" vertex="1">
          <mxGeometry x="274" y="630" width="62.5" height="91" as="geometry" />
        </mxCell>
        <mxCell id="_ZhD5MY3oaE8I9x_8OGQ-11" value="" style="endArrow=classic;html=1;rounded=0;entryX=0.5;entryY=0;entryDx=0;entryDy=0;entryPerimeter=0;jumpStyle=arc;jumpSize=21;startFill=1;startArrow=classic;exitX=0.162;exitY=1.032;exitDx=0;exitDy=0;exitPerimeter=0;endFill=1;" parent="1" source="_ZhD5MY3oaE8I9x_8OGQ-8" target="_ZhD5MY3oaE8I9x_8OGQ-10" edge="1">
          <mxGeometry width="50" height="50" relative="1" as="geometry">
            <mxPoint x="300" y="579" as="sourcePoint" />
            <mxPoint x="350" y="581" as="targetPoint" />
          </mxGeometry>
        </mxCell>
        <mxCell id="_ZhD5MY3oaE8I9x_8OGQ-12" value="La Heladera" style="html=1;whiteSpace=wrap;" parent="1" vertex="1">
          <mxGeometry x="200" y="761" width="140" height="40" as="geometry" />
        </mxCell>
        <mxCell id="_ZhD5MY3oaE8I9x_8OGQ-14" value="" style="endArrow=classic;html=1;rounded=0;exitX=0.75;exitY=0;exitDx=0;exitDy=0;entryX=0.5;entryY=1;entryDx=0;entryDy=0;entryPerimeter=0;" parent="1" source="_ZhD5MY3oaE8I9x_8OGQ-12" target="_ZhD5MY3oaE8I9x_8OGQ-10" edge="1">
          <mxGeometry width="50" height="50" relative="1" as="geometry">
            <mxPoint x="230" y="754" as="sourcePoint" />
            <mxPoint x="280" y="704" as="targetPoint" />
          </mxGeometry>
        </mxCell>
        <mxCell id="_ZhD5MY3oaE8I9x_8OGQ-16" style="rounded=0;orthogonalLoop=1;jettySize=auto;html=1;entryX=0.5;entryY=0;entryDx=0;entryDy=0;" parent="1" source="_ZhD5MY3oaE8I9x_8OGQ-15" target="qF5RI2wpB0qDq2pJv5tg-1" edge="1">
          <mxGeometry relative="1" as="geometry">
            <mxPoint x="527" y="276" as="targetPoint" />
          </mxGeometry>
        </mxCell>
        <mxCell id="_ZhD5MY3oaE8I9x_8OGQ-15" value="" style="shape=waypoint;sketch=0;fillStyle=solid;size=6;pointerEvents=1;points=[];fillColor=none;resizable=0;rotatable=0;perimeter=centerPerimeter;snapToPoint=1;" parent="1" vertex="1">
          <mxGeometry x="517" y="242" width="20" height="20" as="geometry" />
        </mxCell>
        <mxCell id="_ZhD5MY3oaE8I9x_8OGQ-18" value="Registra eventos y responde consultas" style="text;html=1;align=center;verticalAlign=middle;whiteSpace=wrap;rounded=0;fontSize=11;" parent="1" vertex="1">
          <mxGeometry x="517" y="525" width="123" height="34" as="geometry" />
        </mxCell>
        <mxCell id="_ZhD5MY3oaE8I9x_8OGQ-19" value="WiFi/Ethernet" style="text;html=1;align=center;verticalAlign=middle;whiteSpace=wrap;rounded=0;fontSize=11;" parent="1" vertex="1">
          <mxGeometry x="100" y="419" width="100" height="21" as="geometry" />
        </mxCell>
        <mxCell id="_ZhD5MY3oaE8I9x_8OGQ-20" value="Ethernet" style="text;html=1;align=center;verticalAlign=middle;whiteSpace=wrap;rounded=0;fontSize=11;" parent="1" vertex="1">
          <mxGeometry x="602" y="472" width="100" height="21" as="geometry" />
        </mxCell>
        <mxCell id="_ZhD5MY3oaE8I9x_8OGQ-21" value="IP" style="text;html=1;align=center;verticalAlign=middle;whiteSpace=wrap;rounded=0;fontSize=11;" parent="1" vertex="1">
          <mxGeometry x="602" y="445" width="100" height="21" as="geometry" />
        </mxCell>
        <mxCell id="_ZhD5MY3oaE8I9x_8OGQ-22" value="Energía en caso de corte" style="text;html=1;align=center;verticalAlign=middle;whiteSpace=wrap;rounded=0;" parent="1" vertex="1">
          <mxGeometry x="1012" y="535" width="60" height="30" as="geometry" />
        </mxCell>
        <mxCell id="_ZhD5MY3oaE8I9x_8OGQ-23" value="Control de acceso autónomo, con tag" style="text;html=1;align=center;verticalAlign=middle;whiteSpace=wrap;rounded=0;" parent="1" vertex="1">
          <mxGeometry x="688" y="660.5" width="128" height="30" as="geometry" />
        </mxCell>
        <mxCell id="wpPiS2GrXgNtYtGKgzLL-1" value="" style="endArrow=classic;html=1;rounded=0;entryX=0.161;entryY=-0.021;entryDx=0;entryDy=0;entryPerimeter=0;jumpStyle=arc;jumpSize=21;startFill=1;startArrow=classic;exitX=0.936;exitY=1.014;exitDx=0;exitDy=0;endFill=1;exitPerimeter=0;" parent="1" source="2USoUXH-JXkQr2h2Ghpu-40" target="_ZhD5MY3oaE8I9x_8OGQ-8" edge="1">
          <mxGeometry width="50" height="50" relative="1" as="geometry">
            <mxPoint x="300" y="619" as="sourcePoint" />
            <mxPoint x="300" y="761" as="targetPoint" />
          </mxGeometry>
        </mxCell>
        <mxCell id="-84Fsew7rkMVFRgrEXBY-1" value="" style="endArrow=classic;html=1;rounded=0;exitX=0.25;exitY=1;exitDx=0;exitDy=0;entryX=0.22;entryY=-0.013;entryDx=0;entryDy=0;entryPerimeter=0;startArrow=classic;startFill=1;endFill=1;" parent="1" source="2USoUXH-JXkQr2h2Ghpu-40" target="_ZhD5MY3oaE8I9x_8OGQ-12" edge="1">
          <mxGeometry width="50" height="50" relative="1" as="geometry">
            <mxPoint x="390" y="569" as="sourcePoint" />
            <mxPoint x="390" y="612" as="targetPoint" />
          </mxGeometry>
        </mxCell>
        <mxCell id="qF5RI2wpB0qDq2pJv5tg-1" value="&lt;b&gt;Border Operations Broker (B.O.B.)&lt;/b&gt;" style="html=1;whiteSpace=wrap;" vertex="1" parent="1">
          <mxGeometry x="407.25" y="290" width="240" height="50" as="geometry" />
        </mxCell>
        <mxCell id="qF5RI2wpB0qDq2pJv5tg-2" value="" style="endArrow=classic;startArrow=classic;html=1;rounded=0;exitX=0.5;exitY=0;exitDx=0;exitDy=0;entryX=0.5;entryY=1;entryDx=0;entryDy=0;" edge="1" parent="1" source="2USoUXH-JXkQr2h2Ghpu-35" target="qF5RI2wpB0qDq2pJv5tg-1">
          <mxGeometry width="50" height="50" relative="1" as="geometry">
            <mxPoint x="710" y="370" as="sourcePoint" />
            <mxPoint x="760" y="320" as="targetPoint" />
          </mxGeometry>
        </mxCell>
      </root>
    </mxGraphModel>
  </diagram>
</mxfile>
